# xmcd CD database file
#
# Track frame offsets:
#	150
#	22818
#	40932
#	63552
#
# Disc length: 1086 seconds
#
# Revision: 7
# Processed by: cddbd v1.5.2PL0 Copyright (c) Steve Scherf et al.
# Submitted via: CDex 1.70beta3
#
DISCID=2a043c04
DTITLE=堀江由衣 - バニラソルト
DYEAR=2008
DGENRE=アニメ
TTITLE0=バニラソルト
TTITLE1=I my me
TTITLE2=バニラソルト (off vocal version)
TTITLE3=I my me (off vocal version)
EXTD=YEAR: 2008
EXTT0=
EXTT1=
EXTT2=
EXTT3=
PLAYORDER=
